<svg xmlns="http://www.w3.org/2000/svg" xmlns:xlink="http://www.w3.org/1999/xlink" width="1080" zoomAndPan="magnify" viewBox="0 0 810 809.999993" height="1080" preserveAspectRatio="xMidYMid meet" version="1.0"><defs><clipPath id="3b18f02f65"><path d="M 46.847656 40.882812 L 763.097656 40.882812 L 763.097656 757.132812 L 46.847656 757.132812 Z M 46.847656 40.882812 " clip-rule="nonzero"/></clipPath></defs><g clip-path="url(#3b18f02f65)"><path fill="#6b4476" d="M 404.972656 40.882812 C 207.179688 40.882812 46.847656 201.21875 46.847656 399.007812 C 46.847656 596.800781 207.179688 757.132812 404.972656 757.132812 C 602.761719 757.132812 763.097656 596.800781 763.097656 399.007812 C 763.097656 201.21875 602.761719 40.882812 404.972656 40.882812 Z M 473.371094 610.089844 C 462.414062 612.203125 458.511719 605.46875 458.511719 599.667969 C 458.511719 592.539062 458.796875 569.191406 458.796875 540.183594 C 458.796875 519.949219 451.886719 506.734375 444.148438 500.035156 C 492.246094 494.664062 542.777344 476.328125 542.777344 393.027344 C 542.777344 369.355469 534.433594 349.980469 520.574219 334.832031 C 522.792969 329.355469 530.207031 307.292969 518.425781 277.460938 C 518.425781 277.460938 500.339844 271.625 459.082031 299.703125 C 441.820312 294.902344 423.34375 292.503906 405.007812 292.394531 C 386.636719 292.503906 368.15625 294.902344 350.929688 299.703125 C 309.675781 271.660156 291.554688 277.460938 291.554688 277.460938 C 279.804688 307.328125 287.21875 329.355469 289.441406 334.832031 C 275.617188 349.980469 267.199219 369.355469 267.199219 393.027344 C 267.199219 476.113281 317.625 494.699219 365.578125 500.179688 C 359.417969 505.585938 353.832031 515.148438 351.859375 529.152344 C 339.542969 534.703125 308.277344 544.265625 289.011719 511.136719 C 289.011719 511.136719 277.621094 490.332031 255.957031 488.792969 C 255.957031 488.792969 234.863281 488.503906 254.488281 501.96875 C 254.488281 501.96875 268.632812 508.632812 278.445312 533.699219 C 278.445312 533.699219 291.125 575.886719 351.214844 562.78125 C 351.324219 580.867188 351.503906 594.511719 351.503906 599.667969 C 351.503906 605.398438 347.5625 612.09375 336.75 610.125 C 250.90625 581.4375 189.023438 500.179688 189.023438 404.382812 C 189.023438 284.589844 285.714844 187.535156 405.007812 187.535156 C 524.296875 187.535156 620.992188 284.625 620.992188 404.382812 C 620.992188 500.144531 559.179688 581.367188 473.410156 610.089844 Z M 473.371094 610.089844 " fill-opacity="1" fill-rule="nonzero"/></g></svg>