<svg xmlns="http://www.w3.org/2000/svg" xmlns:xlink="http://www.w3.org/1999/xlink" width="1080" zoomAndPan="magnify" viewBox="0 0 810 809.999993" height="1080" preserveAspectRatio="xMidYMid meet" version="1.0"><defs><clipPath id="5fdb56dd72"><path d="M 47 46.847656 L 763 46.847656 L 763 763.097656 L 47 763.097656 Z M 47 46.847656 " clip-rule="nonzero"/></clipPath></defs><g clip-path="url(#5fdb56dd72)"><path fill="#6b4476" d="M 703.257812 46.847656 L 107.042969 46.847656 C 74.078125 46.847656 47.5625 73.71875 47.5625 106.324219 L 47.5625 703.617188 C 47.5625 736.582031 74.4375 763.097656 107.042969 763.097656 L 702.902344 763.097656 C 735.863281 763.097656 762.378906 736.222656 762.378906 703.617188 L 762.378906 106.324219 C 762.738281 73.71875 736.222656 46.847656 703.257812 46.847656 Z M 259.320312 637.691406 L 153.621094 637.691406 L 153.621094 320.230469 L 259.320312 320.230469 Z M 206.292969 281.894531 C 172.96875 281.894531 146.097656 255.019531 146.097656 221.699219 C 146.097656 188.375 172.96875 161.503906 206.292969 161.503906 C 239.613281 161.503906 266.488281 188.375 266.488281 221.699219 C 266.488281 255.019531 239.613281 281.894531 206.292969 281.894531 Z M 657.039062 637.691406 L 550.980469 637.691406 L 548.472656 449.222656 C 548.472656 449.222656 550.980469 399.058594 496.160156 399.417969 C 441.339844 399.777344 433.816406 449.222656 433.816406 449.222656 L 433.816406 637.691406 L 327.039062 637.691406 L 327.039062 320.230469 L 429.515625 320.230469 L 429.515625 363.945312 C 429.515625 363.945312 433.816406 349.613281 457.460938 332.773438 C 481.109375 315.933594 520.164062 312.347656 537.007812 313.066406 C 553.847656 313.78125 576.777344 310.917969 615.117188 337.429688 C 656.320312 365.738281 657.394531 439.90625 657.394531 439.90625 Z M 657.039062 637.691406 " fill-opacity="1" fill-rule="nonzero"/></g></svg>